#Unknown ASF file
:ROOT_YZX
:FOOT_3DOF
:FULLY-SPECIFIED
:DEGREES
518
root 9.78187 17.9298 -33.2418 -5.72042 -145.286 -4.14649
lfemur -13.5144 -5.08005 -7.33324
ltibia 64.088
lfoot 19.2885 0 -4.28432
ltoes -8.79728
rfemur -7.8388 -11.6684 25.5815
rtibia 32.5168
rfoot -13.8315 0 -11.4929
rtoes -26.0281
lowerback 9.42962 0.858705 2.40143
upperback 5.27714 0.745202 6.0264
thorax 0.165393 0.067301 4.85092
lowerneck -18.0067 4.42366 -12.4643
upperneck 36.2516 7.522 4.35533
head 14.9658 1.36776 5.09774
lclavicle 3.39922e-014 3.65764e-014
lhumerus -33.3607 15.0709 84.1534
lradius 24.734
lwrist -2.94459
lhand -14.3833 32.3072
lfingers 7.12502
lthumb 11.7595 61.9571
rclavicle 3.39922e-014 3.65764e-014
rhumerus -23.9644 -11.7104 -68.6775
rradius 24.053
rwrist 3.24719
rhand -23.3801 11.186
rfingers 7.12502
rthumb 3.07598 -18.7716
519
root 9.82849 17.9742 -33.4505 -5.94888 -142.379 -4.90891
lfemur -12.8284 -3.42357 -6.00436
ltibia 63.6226
lfoot 17.7925 0 -1.83387
ltoes -6.67548
rfemur -6.38266 -9.89162 26.4932
rtibia 30.0394
rfoot -14.6909 0 -13.8104
rtoes -13.0696
lowerback 9.6913 1.26172 3.14219
upperback 4.83618 1.43891 6.07035
thorax -0.464889 0.450226 4.40576
lowerneck -17.5527 4.55835 -11.6117
upperneck 36.119 7.43909 4.33312
head 14.8409 1.4929 4.91515
lclavicle -3.45885e-014 -1.59028e-015
lhumerus -35.4004 10.6261 85.1959
lradius 26.1638
lwrist 0.246676
lhand -13.8084 34.0303
lfingers 7.12502
lthumb 12.3139 63.6477
rclavicle -3.45885e-014 -1.59028e-015
rhumerus -24.9762 -11.2069 -67.0882
rradius 24.4849
rwrist 1.89393
rhand -23.9195 10.4989
rfingers 7.12502
rthumb 2.5551 -19.4656
520
root 9.86289 17.9862 -33.6066 -5.73495 -138.995 -4.81456
lfemur -12.6916 -1.42838 -5.65634
ltibia 63.1226
lfoot 15.3541 0 -0.623568
ltoes -12.3792
rfemur -5.53028 -11.1101 26.8575
rtibia 29.7326
rfoot -14.9354 0 -15.9092
rtoes -10.5591
lowerback 10.1703 1.71477 3.52405
upperback 3.9132 2.29649 5.49066
thorax -1.70063 0.941223 3.46889
lowerneck -18.0469 4.3976 -12.6655
upperneck 36.3307 7.29488 5.65654
head 14.929 1.50487 5.66991
lclavicle 2.16675e-014 -1.43125e-014
lhumerus -37.2574 9.78231 83.8746
lradius 26.0861
lwrist -0.844205
lhand -13.4167 33.4609
lfingers 7.12502
lthumb 12.6914 63.0552
rclavicle 2.16675e-014 -1.43125e-014
rhumerus -27.4843 -12.5431 -65.4664
rradius 25.6734
rwrist 1.63907
rhand -24.037 10.4749
rfingers 7.12502
rthumb 2.44166 -19.4908
521
root 9.89501 17.9881 -33.749 -5.47999 -135.631 -4.93706
lfemur -12.3335 0.909776 -4.981
ltibia 62.4753
lfoot 11.3284 0 1.71197
ltoes -14.0052
rfemur -5.56636 -11.0788 27.3419
rtibia 29.3547
rfoot -14.2028 0 -19.2611
rtoes -16.4003
lowerback 8.27795 1.73064 2.19983
upperback 4.99047 1.95202 6.33007
thorax 0.399935 0.711973 5.18987
lowerneck -18.8812 4.9199 -11.7206
upperneck 34.989 8.79788 3.73908
head 14.5239 2.17227 4.92133
lclavicle -3.61788e-014 6.20208e-014
lhumerus -36.0011 12.1469 84.3141
lradius 26.0816
lwrist -1.27853
lhand -7.54155 25.7729
lfingers 7.12502
lthumb 18.3499 54.9274
rclavicle -3.61788e-014 6.20208e-014
rhumerus -24.9304 -10.8749 -64.2783
rradius 25.5673
rwrist 1.41811
rhand -24.3254 10.4304
rfingers 7.12502
rthumb 2.16307 -19.5384
522
root 9.92156 17.9626 -33.848 -5.34509 -131.912 -4.57016
lfemur -11.8281 3.49048 -4.86283
ltibia 61.4973
lfoot 7.33246 0 4.53372
ltoes -14.4898
rfemur -5.39815 -12.4242 27.2287
rtibia 30.0967
rfoot -16.6103 0 -20.8302
rtoes -8.9247
lowerback 8.6678 1.90333 1.93378
upperback 4.56444 2.28225 6.11624
thorax -0.288301 0.911424 5.06974
lowerneck -18.5017 5.22643 -11.6277
upperneck 34.5364 9.17401 3.91761
head 14.1804 2.45445 4.99486
lclavicle 1.61016e-014 -1.00187e-013
lhumerus -37.0856 10.3301 84.7564
lradius 27.8029
lwrist 0.848867
lhand -10.2488 30.9597
lfingers 7.12502
lthumb 15.7441 60.3393
rclavicle 1.61016e-014 -1.00187e-013
rhumerus -25.8028 -11.1214 -62.9697
rradius 26.1025
rwrist 1.65522
rhand -23.9419 10.6769
rfingers 7.12502
rthumb 2.53349 -19.2878
523
root 9.91888 17.9449 -33.8883 -4.85813 -127.717 -3.57191
lfemur -11.6437 6.2456 -5.9267
ltibia 59.8402
lfoot 3.16606 0 7.55739
ltoes -11.7861
rfemur -6.19203 -14.2069 25.9973
rtibia 31.1991
rfoot -18.1886 0 -21.7551
rtoes -3.28527
lowerback 9.4449 2.51801 3.28976
upperback 3.38649 3.46798 4.44026
thorax -1.84569 1.59971 2.38006
lowerneck -15.1015 5.37209 -7.96156
upperneck 32.3717 8.46843 1.77334
head 12.8943 2.52627 3.20836
lclavicle -5.87409e-014 -5.96354e-014
lhumerus -38.5076 4.68752 84.7175
lradius 29.2888
lwrist 3.58073
lhand -10.2837 29.3281
lfingers 7.12502
lthumb 15.7104 58.7104
rclavicle -5.87409e-014 -5.96354e-014
rhumerus -29.2364 -14.0775 -61.8066
rradius 26.5765
rwrist 2.21909
rhand -24.0626 11.0361
rfingers 7.12502
rthumb 2.41693 -18.93
524
root 9.92788 17.9221 -33.9338 -4.62851 -123.792 -3.37012
lfemur -11.2089 9.04631 -6.43083
ltibia 57.9375
lfoot -1.04504 0 11.4675
ltoes -10.7416
rfemur -6.78814 -14.9988 25.8661
rtibia 32.2345
rfoot -20.46 0 -23.6397
rtoes 1.76966
lowerback 9.39973 2.05621 2.9807
upperback 3.11255 2.87252 4.07667
thorax -2.09205 1.3198 2.23479
lowerneck -14.5068 6.81083 -7.41584
upperneck 31.7704 10.4262 1.66154
head 12.4372 3.51921 3.28735
lclavicle 1.27222e-014 -5.48646e-014
lhumerus -38.9735 5.99665 83.922
lradius 30.5836
lwrist 5.93982
lhand -12.1554 31.8995
lfingers 7.12502
lthumb 13.9073 61.4145
rclavicle 1.27222e-014 -5.48646e-014
rhumerus -28.9433 -13.0194 -62.0135
rradius 26.6968
rwrist 2.02424
rhand -23.565 10.334
rfingers 7.12502
rthumb 2.89745 -19.6261
525
root 9.94599 17.8825 -34.0176 -4.71532 -120.177 -3.83255
lfemur -10.2952 13.945 -5.32034
ltibia 55.7367
lfoot -4.72579 0 12.6783
ltoes -11.1281
rfemur -7.0558 -14.7329 26.6804
rtibia 33.2472
rfoot -21.838 0 -26.449
rtoes 0.224849
lowerback 9.3188 2.30833 2.93036
upperback 3.07947 3.21218 4.25658
thorax -2.1015 1.49151 2.41469
lowerneck -16.3801 6.43413 -7.04965
upperneck 33.1472 9.92299 2.15324
head 13.4246 3.31447 3.51031
lclavicle 5.06901e-014 -3.65764e-014
lhumerus -38.3151 10.5552 82.1891
lradius 29.5754
lwrist 1.67162
lhand -12.6339 31.1745
lfingers 7.12502
lthumb 13.4461 60.7205
rclavicle 5.06901e-014 -3.65764e-014
rhumerus -29.1495 -14.4316 -60.9256
rradius 26.4453
rwrist 3.3008
rhand -23.4354 10.5189
rfingers 7.12502
rthumb 3.02259 -19.4394
526
root 9.9654 17.8634 -34.0668 -4.49207 -116.105 -3.69387
lfemur -10.1715 18.5443 -5.4201
ltibia 53.8892
lfoot -8.64091 0 13.8221
ltoes -9.95223
rfemur -7.43302 -14.4775 26.8258
rtibia 33.6072
rfoot -24.4519 0 -28.7784
rtoes 5.58024
lowerback 8.9998 2.29208 1.92771
upperback 3.21555 3.09202 4.56573
thorax -1.85398 1.43309 3.32577
lowerneck -15.6688 6.79263 -8.19784
upperneck 32.0404 10.748 2.16407
head 12.6879 3.65757 3.7252
lclavicle 3.12092e-014 -3.81667e-014
lhumerus -37.6994 12.6136 82.634
lradius 29.9431
lwrist 1.27345
lhand -11.5183 28.7856
lfingers 7.12502
lthumb 14.5212 58.2574
rclavicle 3.12092e-014 -3.81667e-014
rhumerus -28.3635 -14.7166 -60.4508
rradius 26.1086
rwrist 3.46427
rhand -23.9494 10.6056
rfingers 7.12502
rthumb 2.52626 -19.3592
527
root 9.95046 17.8322 -34.1012 -4.34779 -112.538 -4.81205
lfemur -9.50272 23.5874 -4.20788
ltibia 51.1415
lfoot -11.5037 0 14.3547
ltoes -9.81606
rfemur -7.96106 -14.0596 28.1996
rtibia 34.7018
rfoot -28.0685 0 -30.2493
rtoes 10.269
lowerback 8.83617 2.18559 2.23896
upperback 2.96659 2.99202 5.02082
thorax -2.02493 1.38246 3.63823
lowerneck -15.766 6.77773 -8.44438
upperneck 31.6739 10.7159 2.62429
head 12.5041 3.73179 3.92452
lclavicle 4.27387e-015 5.40694e-014
lhumerus -37.9986 11.8792 83.8678
lradius 30.9706
lwrist 3.09156
lhand -14.39 31.8817
lfingers 7.12502
lthumb 11.753 61.532
rclavicle 4.27387e-015 5.40694e-014
rhumerus -28.1938 -15.3253 -60.2505
rradius 26.006
rwrist 3.70698
rhand -23.3429 10.5675
rfingers 7.12502
rthumb 3.11197 -19.3896
528
root 9.90475 17.8334 -33.9958 -3.99031 -108.005 -0.99972
lfemur -8.82294 28.1337 -9.66577
ltibia 46.8187
lfoot -11.7626 0 15.3314
ltoes -19.8742
rfemur -9.13102 -16.3235 23.0254
rtibia 37.1938
rfoot -29.893 0 -29.5002
rtoes 19.4471
lowerback 8.5088 1.82048 -1.30911
upperback 2.86367 2.26305 4.05515
thorax -2.01618 1.05627 4.71926
lowerneck -15.9679 6.99802 -8.76794
upperneck 31.1482 11.2103 2.60176
head 12.2813 3.97167 4.01888
lclavicle -3.1408e-014 1.11319e-014
lhumerus -37.9099 12.3279 84.9365
lradius 31.47
lwrist 3.02725
lhand -14.5112 31.9646
lfingers 7.12502
lthumb 11.6361 61.6215
rclavicle -3.1408e-014 1.11319e-014
rhumerus -26.8924 -12.2978 -61.1957
rradius 25.6787
rwrist 1.98508
rhand -24.0236 9.68513
rfingers 7.12502
rthumb 2.45456 -20.2805
529
root 9.8883 17.8638 -33.9512 -3.43775 -103.335 -1.61638
lfemur -10.3279 31.6662 -10.3937
ltibia 45.3672
lfoot -10.1159 0 15.9549
ltoes -36.851
rfemur -9.60199 -16.5672 23.657
rtibia 37.6675
rfoot -31.9561 0 -30.7588
rtoes 34.0398
lowerback 8.0799 1.89493 -0.953242
upperback 2.45432 2.42348 4.1338
thorax -2.20655 1.15397 4.58675
lowerneck -15.9579 6.29409 -8.85071
upperneck 30.5985 9.99493 3.47857
head 12.0666 3.61307 4.18377
lclavicle 4.72114e-014 -1.59028e-015
lhumerus -37.765 9.81708 86.718
lradius 32.1043
lwrist 2.8243
lhand -14.5473 31.5997
lfingers 7.12502
lthumb 11.6014 61.2586
rclavicle 4.72114e-014 -1.59028e-015
rhumerus -27.6118 -12.8749 -61.3823
rradius 26.2012
rwrist 0.594201
rhand -24.5053 10.3708
rfingers 7.12502
rthumb 1.98931 -19.5996
530
root 9.85176 17.9046 -33.8259 -2.40986 -97.617 -2.11132
lfemur -11.5116 27.4194 -12.9574
ltibia 42.3852
lfoot -9.61296 0 19.8913
ltoes -39.754
rfemur -10.1612 -17.9694 23.6493
rtibia 37.7396
rfoot -34.8727 0 -30.0088
rtoes 44.8821
lowerback 6.89117 1.12751 0.154276
upperback 2.21752 1.48253 3.88037
thorax -1.67337 0.688486 3.80186
lowerneck -17.0943 6.14401 -7.70241
upperneck 30.4783 9.74728 3.12117
head 12.3609 3.60624 3.89984
lclavicle 5.46658e-015 1.27222e-014
lhumerus -37.3898 9.59909 87.3223
lradius 32.4879
lwrist 0.0249012
lhand -13.0294 29.6512
lfingers 7.12502
lthumb 13.0649 59.222
rclavicle 5.46658e-015 1.27222e-014
rhumerus -27.3069 -13.0003 -62.5285
rradius 26.9277
rwrist 0.00615577
rhand -25.0877 10.449
rfingers 7.12502
rthumb 1.42687 -19.526
531
root 9.84171 17.8371 -33.6962 -2.42489 -91.6904 -3.41463
lfemur -10.364 23.7911 -12.5007
ltibia 39.721
lfoot -12.177 0 18.4898
ltoes -38.3699
rfemur -9.74471 -18.5157 24.3166
rtibia 38.4078
rfoot -38.9067 0 -29.2709
rtoes 45.6521
lowerback 6.89881 0.73583 1.52565
upperback 2.11886 1.05396 4.25296
thorax -1.73248 0.469237 3.45048
lowerneck -16.6493 5.45303 -8.95252
upperneck 29.1339 8.71601 4.43205
head 11.6548 3.30373 4.36763
lclavicle 1.0138e-014 1.98785e-014
lhumerus -36.5031 6.75398 89.3728
lradius 32.8344
lwrist -0.538058
lhand -13.2085 30.414
lfingers 7.12502
lthumb 12.8922 59.9957
rclavicle 1.0138e-014 1.98785e-014
rhumerus -27.7151 -13.6614 -62.7363
rradius 28.1711
rwrist -1.16226
rhand -24.2063 10.2722
rfingers 7.12502
rthumb 2.27813 -19.6954
